<?xml version="1.0" encoding="UTF-8"?>
<svg id="Layer_1" data-name="Layer 1" xmlns="http://www.w3.org/2000/svg" viewBox="0 0 342.24 197.02">
  <defs>
    <style>
      .cls-1 {
        fill: #f57f20;
      }
    </style>
  </defs>
  <path class="cls-1" d="M2.78,31.64L0,6.95l22.43-3.48,2.96,25.04v64.68H2.78V31.64ZM53.81,22.95c-2.15-3.24-5.36-4.87-9.65-4.87-3.48,0-7.01,1.16-10.61,3.48-3.59,2.32-7.01,5.51-10.26,9.56l-.35-4.87c3.82-6.84,8.69-12.46,14.6-16.86,5.91-4.4,11.94-6.61,18.08-6.61,7.07,0,12.84,3.1,17.3,9.3,4.46,6.2,6.69,14.81,6.69,25.82v55.29h-22.6v-56.85c0-5.68-1.07-10.14-3.22-13.39Z"/>
  <path class="cls-1" d="M189.12,87.45c-6.43-3.83-11.45-9.07-15.04-15.73-3.59-6.66-5.39-14.17-5.39-22.52,0-8.92,2.03-17.15,6.09-24.69,4.06-7.53,9.59-13.5,16.6-17.91,7.01-4.4,14.81-6.61,23.38-6.61,7.76,0,14.81,1.91,21.12,5.74,6.32,3.83,11.27,9.16,14.87,16,3.59,6.84,5.39,14.66,5.39,23.47s-1.94,17.21-5.82,24.51c-3.88,7.3-9.24,13.04-16.08,17.21-6.84,4.17-14.55,6.26-23.12,6.26s-15.56-1.91-21.99-5.74ZM233.89,80.93c1.97-1.33,3.45-3.24,4.43-5.74.98-2.49,1.48-5.48,1.48-8.95,0-7.42-2.12-15.5-6.35-24.25-4.23-8.75-9.59-16.14-16.08-22.17-6.49-6.03-12.81-9.04-18.95-9.04-2.78,0-5.16.67-7.13,2-1.97,1.33-3.45,3.25-4.43,5.74-.99,2.49-1.48,5.48-1.48,8.95,0,7.42,2.14,15.5,6.43,24.25,4.29,8.75,9.65,16.14,16.08,22.17,6.43,6.03,12.72,9.04,18.86,9.04,2.78,0,5.16-.67,7.13-2Z"/>
  <path class="cls-1" d="M160.1,70.59c-.05.04-.11.09-.16.13l.2-.03v5.78c.82-1,1.62-2.02,2.4-3.1l-2.43-2.78Z"/>
  <path class="cls-1" d="M139.93,43.29l8-4.69h-7.83c0,.06,0,.12,0,.17l-.17,4.52Z"/>
  <path class="cls-1" d="M102.9,38.6v5.91h3.53c-.42-1.99-.74-3.96-.95-5.91h-2.58Z"/>
  <path class="cls-1" d="M150.65,93.45c-2.95,1.82-6.2,3.16-9.72,4.05l-1.16,99.48h22.6l.86-115.2c-3.82,4.69-7.85,8.77-12.58,11.68Z"/>
  <path class="cls-1" d="M159.49,15.82c-2.72-4.75-6.61-8.55-11.65-11.39-5.04-2.84-10.93-4.26-17.65-4.26-8.46,0-16.14,2.23-23.04,6.69-6.9,4.46-12.34,10.46-16.34,17.99-4,7.54-6,15.71-6,24.51s1.8,16,5.39,22.6c3.59,6.61,8.61,11.8,15.04,15.56,6.43,3.77,13.65,5.65,21.65,5.65,3.82,0,7.39-.42,10.71-1.26,3.52-.88,6.77-2.23,9.72-4.05,4.73-2.91,9-6.73,12.82-11.41v-5.78s-.2.03-.2.03c-2.96,2.48-5.98,4.33-9.06,5.52-3.13,1.22-6.43,1.83-9.91,1.83-1.15,0-2.28-.05-3.37-.15-6.63-.59-12.26-2.94-16.88-7.06-5.39-4.81-9.33-10.69-11.82-17.65-1.05-2.93-1.87-5.83-2.47-8.69h-3.53v-5.91h2.58c-.21-1.93-.32-3.84-.32-5.74,0-5.22.67-9.76,2-13.65,1.33-3.88,3.22-6.89,5.65-9.04,2.43-2.14,5.39-3.22,8.87-3.22,4.17,0,7.65,1.62,10.43,4.87,2.78,3.25,4.81,7.3,6.09,12.17,1.26,4.81,1.9,9.68,1.91,14.6h7.83l-8,4.69.17-4.52c0-.06,0-.12,0-.17h-34.62c.21,1.96.52,3.93.95,5.91h42.03c3.24,0,5.88-.23,7.91-.7,2.03-.46,3.74-1.65,5.13-3.56,1.39-1.91,2.09-4.9,2.09-8.95,0-5.56-1.36-10.72-4.09-15.47Z"/>
  <path class="cls-1" d="M173.19,190.89c-3.71-3.82-5.56-8.69-5.56-14.6,0-3.71.87-7.13,2.61-10.26,1.74-3.13,4.61-6.23,8.61-9.3,4-3.07,9.42-6.29,16.26-9.65l6.61-3.3,23.3-10.95v6.09l-14.6,6.78c-7.3,3.48-12.63,6.93-16,10.34-3.36,3.42-5.04,7.04-5.04,10.87s1.27,6.78,3.83,9.21c2.55,2.43,5.91,3.65,10.08,3.65,2.9,0,5.97-.67,9.21-2,3.24-1.33,5.85-3.16,7.82-5.48l1.56,2.78c-3.25,6.38-7.59,11.56-13.04,15.56-5.45,4-11.88,6-19.3,6s-12.64-1.91-16.34-5.74ZM219.95,174.2v-50.94c0-5.45-.41-9.13-1.22-11.04-.81-1.91-2.09-2.87-3.82-2.87-2.67,0-6.09,1.77-10.26,5.3-4.17,3.54-10.26,9.88-18.26,19.04-1.51,1.74-3.16,2.67-4.95,2.78-1.8.12-3.25-.55-4.35-2-1.1-1.45-1.48-3.33-1.13-5.65l2.78-17.56c3.82-1.85,8.92-3.53,15.3-5.04,6.37-1.5,12.23-2.26,17.56-2.26,9.62,0,17.27,2.9,22.95,8.69,5.68,5.8,8.46,15.36,8.35,28.69l-.35,29.73,4.35,25.95h-22.95l-4-22.82Z"/>
  <path class="cls-1" d="M290.17,194.59c-3.88-1.62-7.28-4-10.17-7.13-2.9-3.13-4.87-6.89-5.91-11.3h2.43l-1.91,20.86h-19.65l3.13-32.51v-88.61l22.25-3.48v73.65c0,8.81,1.39,16.63,4.17,23.47,2.78,6.84,6.23,12.11,10.34,15.82,4.11,3.71,8.14,5.56,12.08,5.56,4.63,0,8.11-2.61,10.43-7.82,2.32-5.22,3.48-11.53,3.48-18.95,0-6.72-.96-13.68-2.87-20.86-1.91-7.19-4.75-13.24-8.52-18.17-3.77-4.93-8.32-7.45-13.65-7.56-3.02,0-5.94.87-8.78,2.61-2.84,1.74-5.59,4.46-8.26,8.17v-5.74c3.59-5.56,7.88-10.08,12.87-13.56,4.98-3.48,10.49-5.22,16.52-5.22,5.56,0,10.95,1.56,16.17,4.69,5.22,3.13,9.5,7.88,12.87,14.26,3.36,6.38,5.04,14.08,5.04,23.12,0,9.85-1.94,18.66-5.82,26.43-3.88,7.77-8.9,13.82-15.04,18.17-6.14,4.35-12.58,6.52-19.3,6.52-4.06,0-8.03-.81-11.91-2.43Z"/>
</svg>