<?xml version="1.0" encoding="UTF-8"?>
<svg id="Layer_1" data-name="Layer 1" xmlns="http://www.w3.org/2000/svg" viewBox="0 0 448.42 120.46">
  <path d="M2.69,60.96L0,37.09l21.68-3.36,2.86,24.21v62.53H2.69v-59.51ZM52.03,52.55c-2.08-3.14-5.18-4.71-9.33-4.71-3.36,0-6.78,1.12-10.25,3.36-3.47,2.24-6.78,5.32-9.92,9.25l-.34-4.71c3.7-6.61,8.4-12.05,14.12-16.31,5.72-4.26,11.54-6.39,17.48-6.39,6.83,0,12.41,3,16.73,8.99,4.31,6,6.47,14.32,6.47,24.96v53.46h-21.85v-54.97c0-5.49-1.04-9.81-3.11-12.94Z"/>
  <path d="M101.76,115c-6.22-3.64-11.07-8.66-14.54-15.04-3.47-6.39-5.21-13.67-5.21-21.85s1.93-16.42,5.8-23.7c3.87-7.28,9.13-13.08,15.8-17.4,6.67-4.31,14.09-6.47,22.27-6.47,6.5,0,12.19,1.37,17.06,4.12,4.87,2.75,8.63,6.42,11.26,11.01,2.63,4.6,3.95,9.58,3.95,14.96,0,3.92-.67,6.81-2.02,8.66-1.34,1.85-3,3-4.96,3.45-1.96.45-4.51.67-7.65.67h-44.04v-5.72h43.54l-7.73,4.54.17-4.37c0-4.82-.62-9.58-1.85-14.29-1.23-4.71-3.19-8.63-5.88-11.77-2.69-3.14-6.05-4.71-10.09-4.71-3.36,0-6.22,1.04-8.57,3.11-2.35,2.08-4.18,4.99-5.46,8.74-1.29,3.76-1.93,8.15-1.93,13.2,0,6.39,1.2,12.94,3.61,19.67,2.41,6.72,6.22,12.41,11.43,17.06,5.21,4.65,11.74,6.98,19.58,6.98,3.36,0,6.56-.59,9.58-1.76,3.03-1.18,5.99-3,8.91-5.46l2.35,2.69c-4.26,5.94-9.16,10.62-14.71,14.04-5.55,3.42-12.13,5.13-19.75,5.13s-14.71-1.82-20.93-5.46Z"/>
  <path d="M182.85,114.92c-6.22-3.7-11.07-8.77-14.54-15.21-3.47-6.44-5.21-13.7-5.21-21.77,0-8.63,1.96-16.58,5.88-23.87,3.92-7.28,9.27-13.05,16.05-17.31,6.78-4.26,14.31-6.39,22.61-6.39,7.51,0,14.31,1.85,20.42,5.55,6.11,3.7,10.9,8.85,14.37,15.47,3.47,6.61,5.21,14.18,5.21,22.69s-1.88,16.64-5.63,23.7c-3.76,7.06-8.94,12.61-15.55,16.64-6.61,4.03-14.07,6.05-22.36,6.05s-15.04-1.85-21.26-5.55ZM226.13,108.61c1.9-1.29,3.33-3.14,4.29-5.55.95-2.41,1.43-5.3,1.43-8.66,0-7.17-2.05-14.99-6.14-23.45-4.09-8.46-9.27-15.6-15.55-21.43-6.28-5.83-12.38-8.74-18.32-8.74-2.69,0-4.99.65-6.89,1.93-1.91,1.29-3.34,3.14-4.29,5.55-.95,2.41-1.43,5.29-1.43,8.66,0,7.17,2.07,14.99,6.22,23.45,4.14,8.46,9.33,15.61,15.55,21.43,6.22,5.83,12.3,8.74,18.24,8.74,2.69,0,4.99-.64,6.89-1.93Z"/>
  <path d="M252.67,3.58L274.52.05v120.41h-21.85V3.58Z"/>
  <path d="M284.97,114.54c-3.59-3.7-5.38-8.4-5.38-14.12,0-3.59.84-6.89,2.52-9.92,1.68-3.03,4.45-6.02,8.32-8.99,3.87-2.97,9.1-6.08,15.72-9.33l6.39-3.19,22.52-10.59v5.88l-14.12,6.56c-7.06,3.36-12.22,6.7-15.46,10-3.25,3.31-4.88,6.81-4.88,10.51s1.23,6.56,3.7,8.91c2.46,2.35,5.72,3.53,9.75,3.53,2.8,0,5.77-.64,8.91-1.93,3.14-1.29,5.66-3.05,7.56-5.3l1.51,2.69c-3.14,6.16-7.34,11.18-12.61,15.04-5.27,3.87-11.49,5.8-18.66,5.8s-12.22-1.85-15.8-5.55ZM330.19,98.4v-49.25c0-5.27-.39-8.83-1.18-10.67-.79-1.85-2.02-2.77-3.7-2.77-2.58,0-5.88,1.71-9.92,5.13-4.03,3.42-9.92,9.56-17.65,18.41-1.46,1.68-3.05,2.58-4.79,2.69-1.74.11-3.14-.53-4.2-1.93-1.07-1.4-1.43-3.22-1.09-5.46l2.69-16.98c3.7-1.79,8.63-3.42,14.79-4.88,6.16-1.45,11.82-2.19,16.98-2.19,9.3,0,16.7,2.8,22.19,8.4,5.49,5.61,8.18,14.85,8.07,27.74l-.34,28.74,4.2,25.09h-22.19l-3.87-22.06Z"/>
  <path d="M398.08,118.11c-3.76-1.57-7.03-3.87-9.83-6.89-2.8-3.03-4.71-6.67-5.72-10.93h2.35l-1.85,20.17h-19l3.03-31.43V3.36l21.52-3.36v71.21c0,8.52,1.34,16.08,4.03,22.69,2.69,6.61,6.02,11.71,10,15.3,3.98,3.59,7.87,5.38,11.68,5.38,4.48,0,7.84-2.52,10.09-7.56,2.24-5.04,3.36-11.15,3.36-18.32,0-6.5-.92-13.22-2.77-20.17-1.85-6.95-4.6-12.8-8.24-17.57-3.64-4.76-8.04-7.2-13.2-7.31-2.92,0-5.74.84-8.49,2.52-2.75,1.68-5.41,4.32-7.98,7.9v-5.55c3.47-5.38,7.62-9.75,12.44-13.11,4.82-3.36,10.14-5.04,15.97-5.04,5.38,0,10.59,1.51,15.63,4.54,5.04,3.03,9.19,7.62,12.44,13.78,3.25,6.16,4.88,13.62,4.88,22.36,0,9.53-1.88,18.04-5.63,25.55-3.76,7.51-8.6,13.36-14.54,17.57-5.94,4.2-12.16,6.3-18.66,6.3-3.92,0-7.76-.79-11.51-2.35Z"/>
</svg>