<?xml version="1.0" encoding="UTF-8"?>
<svg id="Layer_1" data-name="Layer 1" xmlns="http://www.w3.org/2000/svg" viewBox="0 0 235.13 219.72">
  <path d="M75.86,16.53c-2.55-1.64-5.26-1.77-8.13-.4-2.32,1.12-4.28,3.09-5.88,5.9-1.6,2.82-2.78,6.21-3.55,10.16l-1.91-3.39c.19-6.14,1.5-11.74,3.93-16.81,2.43-5.06,5.69-8.58,9.79-10.55,4.72-2.27,9.64-1.89,14.77,1.12,5.12,3.02,9.59,8.49,13.39,16.4l19.1,39.71-15.09,7.26-19.64-40.84c-1.96-4.08-4.22-6.94-6.77-8.58ZM44.79,39.17l-10.39-16.84,13.78-9.7,10.62,17.03,22.35,46.46-15.09,7.26-21.27-44.21Z"/>
  <path d="M131.76,66.26c-3.7-4.25-6.06-9.29-7.08-15.1-1.03-5.81-.56-11.94,1.39-18.4,2.03-6.72,5.33-12.53,9.91-17.42,4.57-4.89,9.82-8.3,15.74-10.23,5.92-1.93,11.88-1.98,17.89-.17,4.77,1.44,8.61,3.79,11.54,7.03,2.92,3.25,4.8,6.98,5.64,11.19.83,4.21.61,8.44-.67,12.68-.94,3.1-2.12,5.22-3.54,6.38-1.43,1.16-2.92,1.7-4.46,1.62-1.55-.08-3.47-.47-5.77-1.16l-32.31-9.76,1.36-4.51,31.94,9.65-6.76,1.87,1.17-3.41c1.15-3.8,1.83-7.7,2.05-11.69.22-3.99-.29-7.52-1.51-10.59-1.23-3.07-3.32-5.06-6.28-5.95-2.47-.75-4.81-.56-7.03.55-2.22,1.12-4.25,3.01-6.09,5.69-1.84,2.68-3.36,6.01-4.56,9.99-1.52,5.04-2.2,10.48-2.04,16.32.16,5.84,1.6,11.17,4.32,16,2.71,4.83,6.95,8.11,12.71,9.85,2.47.75,4.95.99,7.45.73s5.11-1.04,7.84-2.34l1.09,2.64c-4.54,3.74-9.25,6.35-14.14,7.82-4.88,1.47-10.12,1.36-15.71-.33-5.67-1.71-10.36-4.7-14.05-8.95Z"/>
  <path d="M165.49,93.07c3.06-4.76,7.26-8.46,12.58-11.1,5.32-2.65,11.31-3.96,17.96-3.94,7.11.02,13.67,1.55,19.66,4.57,5.99,3.02,10.74,7.14,14.23,12.35,3.49,5.21,5.23,10.99,5.21,17.35-.02,5.75-1.56,10.97-4.62,15.64-3.06,4.67-7.33,8.33-12.79,10.97-5.46,2.64-11.7,3.96-18.72,3.93-7.21-.02-13.72-1.48-19.53-4.38-5.81-2.9-10.37-6.88-13.68-11.96-3.31-5.08-4.95-10.8-4.93-17.15.02-6.1,1.56-11.53,4.63-16.28ZM170.58,126.26c1.06,1.46,2.58,2.56,4.56,3.3,1.98.74,4.36,1.11,7.13,1.12,5.91.02,12.36-1.53,19.35-4.64,6.98-3.11,12.89-7.07,17.71-11.86,4.82-4.8,7.24-9.47,7.25-14.02,0-2.06-.52-3.82-1.58-5.29-1.06-1.46-2.58-2.57-4.56-3.3-1.99-.74-4.36-1.11-7.13-1.12-5.91-.02-12.36,1.55-19.35,4.7-6.99,3.15-12.89,7.11-17.71,11.86-4.82,4.75-7.24,9.4-7.25,13.96,0,2.06.52,3.82,1.58,5.29Z"/>
  <path d="M93.84,90.39l5.95,15.92L3.09,124.48l-3.09-16.46,93.84-17.62Z"/>
  <path d="M29.06,169.04c-.06-4.11,1.47-7.93,4.58-11.47,1.95-2.22,4.23-3.85,6.85-4.87,2.61-1.03,5.84-1.48,9.68-1.37,3.84.11,8.55.83,14.13,2.16l5.42,1.25,18.74,4.82-3.2,3.65-11.7-3.07c-5.9-1.49-10.68-2.02-14.35-1.62-3.67.41-6.51,1.75-8.52,4.05-1.95,2.22-2.85,4.69-2.71,7.39.14,2.7,1.37,5.08,3.7,7.12,1.61,1.42,3.67,2.52,6.18,3.31,2.51.79,4.92.97,7.24.54l-.59,2.43c-5.16,2.23-10.31,3.22-15.44,2.95-5.14-.27-9.77-2.21-13.9-5.84-4-3.51-6.03-7.32-6.09-11.43ZM63.89,181.89l26.78-30.52c2.86-3.26,4.57-5.67,5.13-7.21.55-1.54.35-2.74-.62-3.59-1.49-1.3-4.32-1.91-8.5-1.84-4.18.08-10.91.91-20.18,2.49-1.75.3-3.16.05-4.22-.75-1.06-.81-1.52-1.92-1.37-3.32.15-1.41.93-2.72,2.34-3.94l10.78-9.16c3.1.76,6.83,2.24,11.17,4.46,4.34,2.21,8,4.62,10.97,7.23,5.36,4.7,8.1,10.18,8.21,16.42.12,6.25-3.36,13.34-10.43,21.27l-15.82,17.64-9.92,16.19-12.78-11.22,8.47-14.14Z"/>
  <path d="M157.45,214.25c-3.09-.64-5.95-1.95-8.58-3.93-2.63-1.97-4.7-4.59-6.21-7.86l1.76-.39,1.74,14.52-14.22,3.13-2.86-23.78-15.42-70.11,15.51-6.25,12.86,58.47c1.51,6.86,3.86,12.73,7.04,17.61,3.18,4.88,6.58,8.44,10.2,10.67,3.61,2.23,6.85,3.03,9.7,2.41,3.35-.74,5.42-3.32,6.21-7.75.78-4.43.54-9.53-.73-15.31-1.15-5.23-3.03-10.49-5.65-15.79-2.61-5.29-5.71-9.55-9.28-12.79-3.57-3.23-7.3-4.47-11.17-3.71-2.18.48-4.15,1.62-5.91,3.43-1.76,1.81-3.28,4.37-4.58,7.68l-.98-4.47c1.65-4.9,3.98-9.1,6.99-12.61,3.01-3.5,6.7-5.73,11.06-6.69,4.03-.89,8.2-.53,12.51,1.08,4.31,1.61,8.23,4.62,11.75,9.05,3.52,4.43,6.06,10.16,7.61,17.2,1.69,7.67,1.79,14.84.31,21.5-1.48,6.66-4.07,12.18-7.77,16.54-3.7,4.36-7.99,7.08-12.85,8.15-2.94.65-5.95.65-9.04,0Z"/>
</svg>